<svg width="128" height="128" viewBox="0 0 128 128" fill="none" xmlns="http://www.w3.org/2000/svg">
<rect width="128" height="128" rx="30.72" fill="#6B3657"/>
<path fill-rule="evenodd" clip-rule="evenodd" d="M60.5184 60.5184C45.7216 59.648 29.184 57.0368 29.184 43.1104C29.184 31.7952 41.3696 26.5728 50.0736 32.6656C59.648 39.6288 60.5184 50.944 60.5184 60.5184ZM52.6848 52.6848C51.8144 46.592 50.0736 41.3696 45.7216 38.7584C42.24 36.1472 37.888 38.7584 37.888 43.1104C37.888 48.3328 43.9808 51.8144 52.6848 52.6848Z" fill="white"/>
<path fill-rule="evenodd" clip-rule="evenodd" d="M67.4816 60.5184C68.352 45.7216 70.9632 29.184 84.8896 29.184C96.2048 29.184 101.427 41.3696 95.3344 50.0736C88.3712 59.648 77.056 60.5184 67.4816 60.5184ZM75.3152 52.6848C81.408 51.8144 86.6304 50.0736 89.2416 45.7216C91.8528 42.24 89.2416 37.888 84.8896 37.888C79.6672 37.888 76.1856 43.9808 75.3152 52.6848Z" fill="white"/>
<path fill-rule="evenodd" clip-rule="evenodd" d="M67.4816 67.4816C82.2784 68.352 98.816 70.9632 98.816 84.8896C98.816 96.2048 86.6304 101.427 77.9264 95.3344C68.352 88.3712 67.4816 77.056 67.4816 67.4816ZM75.3152 75.3152C76.1856 81.408 77.9264 86.6304 82.2784 89.2416C85.76 91.8528 90.112 89.2416 90.112 84.8896C90.112 79.6672 84.0192 76.1856 75.3152 75.3152Z" fill="white"/>
<path fill-rule="evenodd" clip-rule="evenodd" d="M60.5184 67.4816C59.648 82.2784 57.0368 98.816 43.1104 98.816C31.7952 98.816 26.5728 86.6304 32.6656 77.9264C39.6288 68.352 50.944 67.4816 60.5184 67.4816ZM52.6848 75.3152C46.592 76.1856 41.3696 77.9264 38.7584 82.2784C36.1472 85.76 38.7584 90.112 43.1104 90.112C48.3328 90.112 51.8144 84.0192 52.6848 75.3152Z" fill="white"/>
</svg>

