<svg width="256" height="212" viewBox="0 0 256 212" fill="none" xmlns="http://www.w3.org/2000/svg">
<path fill-rule="evenodd" clip-rule="evenodd" d="M124.16 44.16C107.84 43.2 89.6 40.32 89.6 24.96C89.6 12.48 103.04 6.72 112.64 13.44C123.2 21.12 124.16 33.6 124.16 44.16ZM115.52 35.52C114.56 28.8 112.64 23.04 107.84 20.16C104 17.28 99.2 20.16 99.2 24.96C99.2 30.72 105.92 34.56 115.52 35.52Z" fill="#6B3657"/>
<path fill-rule="evenodd" clip-rule="evenodd" d="M131.84 44.16C132.8 27.84 135.68 9.59998 151.04 9.59998C163.52 9.59998 169.28 23.04 162.56 32.64C154.88 43.2 142.4 44.16 131.84 44.16ZM140.48 35.52C147.2 34.56 152.96 32.64 155.84 27.84C158.72 24 155.84 19.2 151.04 19.2C145.28 19.2 141.44 25.92 140.48 35.52Z" fill="#6B3657"/>
<path fill-rule="evenodd" clip-rule="evenodd" d="M131.84 51.84C148.16 52.8 166.4 55.68 166.4 71.04C166.4 83.52 152.96 89.28 143.36 82.56C132.8 74.88 131.84 62.4 131.84 51.84ZM140.48 60.48C141.44 67.2 143.36 72.96 148.16 75.84C152 78.72 156.8 75.84 156.8 71.04C156.8 65.28 150.08 61.44 140.48 60.48Z" fill="#6B3657"/>
<path fill-rule="evenodd" clip-rule="evenodd" d="M124.16 51.84C123.2 68.16 120.32 86.4 104.96 86.4C92.4799 86.4 86.7199 72.96 93.4399 63.36C101.12 52.8 113.6 51.84 124.16 51.84ZM115.52 60.48C108.8 61.44 103.04 63.36 100.16 68.16C97.2799 72 100.16 76.8 104.96 76.8C110.72 76.8 114.56 70.08 115.52 60.48Z" fill="#6B3657"/>
<path d="M51 174V152C51 145.141 48.7771 140.457 45.874 137.508C42.9298 134.517 38.9884 133 35 133C31.0116 133 27.0702 134.517 24.126 137.508C21.2229 140.457 19 145.141 19 152V174C19 176.761 16.7614 179 14 179C11.2386 179 9 176.761 9 174V133C9 130.239 11.2386 128 14 128C15.5117 128 16.8654 128.672 17.7822 129.732C22.6128 125.233 28.827 123 35 123C41.5116 123 48.0702 125.483 53.001 130.492C57.9729 135.543 61 142.859 61 152V174C61 176.761 58.7614 179 56 179C53.2386 179 51 176.761 51 174Z" fill="#6B3657"/>
<path d="M106 174V173.741C101.883 176.909 96.939 178.5 92 178.5C85.9306 178.5 79.8536 176.098 75.3125 171.318C70.743 166.508 68 159.589 68 151C68 142.411 70.743 135.492 75.3125 130.682C79.8536 125.901 85.9306 123.5 92 123.5C97.5353 123.5 103.076 125.498 107.453 129.476C108.359 128.564 109.614 128 111 128C113.761 128 116 130.239 116 133V174C116 176.761 113.761 179 111 179C108.239 179 106 176.761 106 174ZM78 151C78 157.411 80.0071 161.742 82.5625 164.432C85.1463 167.151 88.5695 168.5 92 168.5C95.4305 168.5 98.8537 167.151 101.438 164.432C103.993 161.742 106 157.411 106 151C106 144.589 103.993 140.258 101.438 137.568C98.8537 134.849 95.4305 133.5 92 133.5C88.5695 133.5 85.1463 134.849 82.5625 137.568C80.0071 140.258 78 144.589 78 151Z" fill="#6B3657"/>
<path d="M132.089 128.381C134.641 127.325 137.565 128.538 138.621 131.089L150.616 160.078L150.829 160.579C151.889 163.025 152.863 164.557 153.632 165.415C153.775 165.575 153.9 165.695 154.001 165.787C154.102 165.695 154.227 165.575 154.37 165.415C155.191 164.5 156.244 162.818 157.386 160.078L157.439 159.956L170.439 130.956C171.568 128.437 174.526 127.309 177.046 128.439C179.566 129.568 180.693 132.527 179.564 135.046L172.887 149.94C173.094 150.89 173.028 151.911 172.635 152.88L157.654 189.833C155.213 196.449 150.57 201.513 144.611 204.09C138.595 206.692 131.62 206.593 124.932 203.553C122.418 202.41 121.307 199.446 122.449 196.932C123.592 194.418 126.557 193.307 129.071 194.45C133.382 196.409 137.408 196.311 140.642 194.912C143.895 193.506 146.73 190.616 148.302 186.292C148.323 186.235 148.345 186.179 148.367 186.122L152.521 175.877C149.88 175.433 147.757 173.845 146.183 172.087C144.316 170.003 142.744 167.184 141.386 163.924L141.381 163.913L129.381 134.913C128.325 132.362 129.538 129.437 132.089 128.381Z" fill="#6B3657"/>
<path d="M231 174V173.741C226.883 176.909 221.939 178.5 217 178.5C210.931 178.5 204.854 176.098 200.312 171.318C195.743 166.508 193 159.589 193 151C193 142.411 195.743 135.492 200.312 130.682C204.854 125.901 210.931 123.5 217 123.5C222.535 123.5 228.076 125.498 232.453 129.476C233.359 128.564 234.614 128 236 128C238.761 128 241 130.239 241 133V174C241 176.761 238.761 179 236 179C233.239 179 231 176.761 231 174ZM203 151C203 157.411 205.007 161.742 207.562 164.432C210.146 167.151 213.569 168.5 217 168.5C220.431 168.5 223.854 167.151 226.438 164.432C228.993 161.742 231 157.411 231 151C231 144.589 228.993 140.258 226.438 137.568C223.854 134.849 220.431 133.5 217 133.5C213.569 133.5 210.146 134.849 207.562 137.568C205.007 140.258 203 144.589 203 151Z" fill="#6B3657"/>
</svg>

